<?xml version="1.0" encoding="UTF-8" standalone="no"?>
<!-- Created with Inkscape (http://www.inkscape.org/) -->

<svg
   width="177.91483mm"
   height="34.98896mm"
   viewBox="0 0 177.91483 34.98896"
   version="1.1"
   id="svg5"
   xml:space="preserve"
   xmlns="http://www.w3.org/2000/svg"
   xmlns:svg="http://www.w3.org/2000/svg"><defs
     id="defs2"><clipPath
       clipPathUnits="userSpaceOnUse"
       id="clipPath25"><path
         d="M 0,114.386 H 586.384 V 0 H 0 Z"
         id="path23" /></clipPath></defs><g
     id="layer1"
     transform="translate(-26.751615,-3.0028463)" /><g
     id="g19"
     transform="matrix(0.35277776,0,0,-0.35277778,-15.773258,37.349995)"><g
       id="g21"
       clip-path="url(#clipPath25)"><g
         id="g27"
         transform="translate(121.2856,58.542)"><path
           d="m 0,0 c -8.615,5.855 -19.647,3.467 -25.436,-5.338 -4.838,-7.355 -12.14,-8.269 -14.97,-8.269 -9.211,0 -15.52,6.482 -17.387,13.189 h -0.004 c -0.019,0.068 -0.033,0.123 -0.051,0.188 -0.018,0.074 -0.043,0.15 -0.059,0.228 -0.735,2.797 -0.916,4.137 -0.916,7.109 0,16.041 16.454,33.901 40.161,33.901 24.271,0 38.16,-18.479 41.738,-28.748 -0.064,0.179 -0.118,0.359 -0.183,0.547 -6.885,20.084 -25.935,34.525 -48.357,34.525 -28.222,0 -51.11,-22.879 -51.11,-51.109 0,-25.231 18.201,-46.828 43.443,-46.828 20.131,0 33.662,11.289 39.869,26.843 C 10.143,-15.254 7.73,-5.254 0,0"
           style="fill:#003863;fill-opacity:1;fill-rule:nonzero;stroke:none"
           id="path29" /></g><g
         id="g31"
         transform="translate(144.6782,69.8057)"><path
           d="m 0,0 c -2.984,10.016 -16.978,29.744 -42.055,29.744 -23.707,0 -40.161,-17.859 -40.161,-33.9 0,-2.973 0.182,-4.313 0.916,-7.11 -0.306,1.223 -0.473,2.452 -0.473,3.647 0,16.705 16.728,28.279 33.921,28.279 23.278,0 42.143,-18.869 42.143,-42.139 0,-18.246 -10.498,-34.033 -25.754,-41.623 l 0.004,-0.011 c 19.666,7.121 33.707,25.955 33.707,48.072 C 2.248,-9.807 1.547,-5.191 0,0"
           style="fill:#e4032e;fill-opacity:1;fill-rule:nonzero;stroke:none"
           id="path33" /></g><g
         id="g35"
         transform="translate(192.8267,82.9033)"><path
           d="m 0,0 v -20.374 h -3.274 v 16.398 l -5.321,-16.398 h -3.157 l -5.319,16.398 v -16.398 h -3.275 V 0 h 5.029 L -10.173,-15.873 -5.028,0 Z"
           style="fill:#575756;fill-opacity:1;fill-rule:nonzero;stroke:none"
           id="path37" /></g><path
         d="m 196.883,77.174 h 3.332 V 62.529 h -3.332 z m 3.771,4.122 c 0,-0.566 -0.209,-1.058 -0.628,-1.477 -0.419,-0.419 -0.921,-0.629 -1.506,-0.629 -0.584,0 -1.086,0.21 -1.505,0.629 -0.42,0.419 -0.629,0.911 -0.629,1.477 0,0.584 0.209,1.086 0.629,1.505 0.419,0.419 0.921,0.629 1.505,0.629 0.585,0 1.087,-0.21 1.506,-0.629 0.419,-0.419 0.628,-0.921 0.628,-1.505"
         style="fill:#575756;fill-opacity:1;fill-rule:nonzero;stroke:none"
         id="path39" /><g
         id="g41"
         transform="translate(207.5767,69.8955)"><path
           d="M 0,0 V -7.366 H -3.304 V 7.278 h 3.187 V 5.32 C 0.272,6.002 0.838,6.558 1.578,6.986 2.318,7.414 3.117,7.629 3.976,7.629 5.71,7.629 7.098,7.039 8.141,5.86 9.183,4.682 9.705,3.107 9.705,1.14 V -7.366 H 6.372 v 7.658 c 0,1.559 -0.253,2.714 -0.76,3.464 C 5.105,4.506 4.326,4.882 3.273,4.882 2.728,4.882 2.196,4.701 1.681,4.341 1.164,3.979 0.77,3.488 0.497,2.864 0.165,2.144 0,1.188 0,0"
           style="fill:#575756;fill-opacity:1;fill-rule:nonzero;stroke:none"
           id="path43" /></g><path
         d="m 221.222,77.174 h 3.332 V 62.529 h -3.332 z m 3.771,4.122 c 0,-0.566 -0.209,-1.058 -0.628,-1.477 -0.419,-0.419 -0.921,-0.629 -1.506,-0.629 -0.584,0 -1.086,0.21 -1.505,0.629 -0.42,0.419 -0.629,0.911 -0.629,1.477 0,0.584 0.209,1.086 0.629,1.505 0.419,0.419 0.921,0.629 1.505,0.629 0.585,0 1.087,-0.21 1.506,-0.629 0.419,-0.419 0.628,-0.921 0.628,-1.505"
         style="fill:#575756;fill-opacity:1;fill-rule:nonzero;stroke:none"
         id="path45" /><g
         id="g47"
         transform="translate(227.2671,65.2471)"><path
           d="M 0,0 2.076,2.134 C 2.66,1.335 3.304,0.712 4.005,0.264 c 0.682,-0.41 1.413,-0.615 2.192,-0.615 0.74,0 1.369,0.151 1.886,0.454 C 8.599,0.404 8.857,0.809 8.857,1.315 8.857,1.822 8.609,2.217 8.112,2.5 7.615,2.782 7.025,3.05 6.344,3.304 5.544,3.557 4.726,3.839 3.889,4.151 2.758,4.561 1.93,5.087 1.403,5.729 0.877,6.373 0.614,7.104 0.614,7.922 c 0,1.208 0.566,2.236 1.696,3.084 1.129,0.848 2.464,1.271 4.004,1.271 1.637,0 2.972,-0.389 4.005,-1.169 0.527,-0.409 0.945,-0.916 1.257,-1.52 L 9.53,7.601 C 9.257,8.068 8.936,8.448 8.565,8.74 7.922,9.306 7.113,9.588 6.139,9.588 5.573,9.588 5.082,9.446 4.663,9.164 4.243,8.882 4.034,8.546 4.034,8.156 4.034,7.727 4.269,7.366 4.736,7.074 5.203,6.782 5.896,6.499 6.812,6.227 7.143,6.129 7.522,6.012 7.951,5.876 9.374,5.408 10.45,4.804 11.182,4.063 c 0.73,-0.741 1.095,-1.626 1.095,-2.66 0,-1.208 -0.584,-2.255 -1.754,-3.142 -1.169,-0.887 -2.66,-1.33 -4.471,-1.33 -1.521,0 -2.865,0.351 -4.034,1.052 C 1.237,-1.549 0.565,-0.877 0,0"
           style="fill:#575756;fill-opacity:1;fill-rule:nonzero;stroke:none"
           id="path49" /></g><g
         id="g51"
         transform="translate(246.438,81.8799)"><path
           d="m 0,0 v -4.706 h 3.186 v -2.69 H 0 v -7.454 c 0,-0.701 0.17,-1.183 0.511,-1.446 0.341,-0.264 0.823,-0.395 1.447,-0.395 h 1.228 v -2.66 H 1.169 c -1.579,0 -2.729,0.351 -3.449,1.052 -0.722,0.702 -1.082,1.744 -1.082,3.128 v 7.775 h -2.514 v 2.69 h 2.514 V 0 Z"
           style="fill:#575756;fill-opacity:1;fill-rule:nonzero;stroke:none"
           id="path53" /></g><g
         id="g55"
         transform="translate(252.395,62.5293)"><path
           d="m 0,0 v 14.645 h 3.128 v -2.193 c 0.487,0.721 1.082,1.277 1.783,1.666 0.838,0.507 1.822,0.761 2.952,0.761 H 8.098 V 11.896 H 7.747 C 6.362,11.896 5.262,11.478 4.443,10.64 3.684,9.821 3.304,8.545 3.304,6.811 V 0 Z"
           style="fill:#575756;fill-opacity:1;fill-rule:nonzero;stroke:none"
           id="path57" /></g><g
         id="g59"
         transform="translate(267.5034,63.084)"><path
           d="M 0,0 -5.759,14.09 H -2.31 L 1.666,4.093 5.612,14.09 h 3.42 L 0.877,-6.226 h -3.392 z"
           style="fill:#575756;fill-opacity:1;fill-rule:nonzero;stroke:none"
           id="path61" /></g><g
         id="g63"
         transform="translate(292.7476,64.9258)"><path
           d="M 0,0 C 1.208,0 2.246,0.463 3.113,1.389 3.98,2.313 4.414,3.488 4.414,4.911 4.414,6.314 3.98,7.488 3.113,8.434 2.246,9.378 1.208,9.852 0,9.852 -1.189,9.852 -2.217,9.378 -3.084,8.434 -3.951,7.488 -4.385,6.314 -4.385,4.911 -4.385,3.488 -3.951,2.313 -3.084,1.389 -2.217,0.463 -1.189,0 0,0 m 0,-2.748 c -2.144,0 -3.971,0.736 -5.481,2.207 -1.51,1.472 -2.265,3.289 -2.265,5.452 0,2.163 0.755,3.985 2.265,5.466 1.51,1.481 3.337,2.222 5.481,2.222 2.163,0 3.994,-0.741 5.495,-2.222 C 6.996,8.896 7.746,7.074 7.746,4.911 7.746,2.748 6.996,0.931 5.495,-0.541 3.994,-2.012 2.163,-2.748 0,-2.748"
           style="fill:#575756;fill-opacity:1;fill-rule:nonzero;stroke:none"
           id="path65" /></g><g
         id="g67"
         transform="translate(304.0835,78.7227)"><path
           d="m 0,0 c 0,1.364 0.385,2.402 1.155,3.113 0.77,0.712 1.944,1.068 3.523,1.068 H 6.285 V 1.521 H 5.32 C 4.696,1.521 4.214,1.389 3.873,1.126 3.532,0.863 3.362,0.381 3.362,-0.321 V -1.549 H 6.285 V -4.238 H 3.362 V -16.193 H 0 v 11.955 h -2.514 v 2.689 H 0 Z"
           style="fill:#575756;fill-opacity:1;fill-rule:nonzero;stroke:none"
           id="path69" /></g><g
         id="g71"
         transform="translate(334.064,62.5293)"><path
           d="m 0,0 h -12.131 v 20.374 h 3.42 V 2.864 H 0 Z"
           style="fill:#575756;fill-opacity:1;fill-rule:nonzero;stroke:none"
           id="path73" /></g><g
         id="g75"
         transform="translate(341.9214,64.8086)"><path
           d="M 0,0 C 0.857,0 1.705,0.21 2.543,0.629 3.381,1.048 3.985,1.53 4.355,2.076 V 4.561 H 1.403 c -1.676,0 -2.845,-0.215 -3.507,-0.644 -0.644,-0.487 -0.965,-1.071 -0.965,-1.754 0,-0.624 0.272,-1.14 0.818,-1.549 C -1.705,0.205 -0.955,0 0,0 m 0.906,7.162 h 3.449 c 0,0.954 -0.37,1.671 -1.11,2.149 -0.741,0.477 -1.812,0.715 -3.216,0.715 h -0.088 c -1.325,0 -2.728,-0.311 -4.209,-0.934 l -0.847,2.601 c 1.539,0.662 3.234,1.003 5.086,1.023 h 0.058 c 2.455,0 4.341,-0.473 5.657,-1.418 1.315,-0.945 1.972,-2.45 1.972,-4.516 V -2.279 H 4.502 v 1.607 C 3.878,-1.296 3.113,-1.777 2.207,-2.119 1.301,-2.46 0.38,-2.631 -0.556,-2.631 c -1.754,0 -3.172,0.464 -4.253,1.389 -1.082,0.926 -1.622,2.06 -1.622,3.405 0,1.501 0.672,2.738 2.017,3.713 1.247,0.857 3.02,1.286 5.32,1.286"
           style="fill:#575756;fill-opacity:1;fill-rule:nonzero;stroke:none"
           id="path77" /></g><g
         id="g79"
         transform="translate(356.7368,69.8955)"><path
           d="M 0,0 V -7.366 H -3.304 V 7.278 h 3.187 V 5.32 C 0.272,6.002 0.838,6.558 1.578,6.986 2.318,7.414 3.117,7.629 3.976,7.629 5.71,7.629 7.098,7.039 8.141,5.86 9.183,4.682 9.705,3.107 9.705,1.14 V -7.366 H 6.372 v 7.658 c 0,1.559 -0.253,2.714 -0.76,3.464 C 5.105,4.506 4.326,4.882 3.273,4.882 2.728,4.882 2.196,4.701 1.681,4.341 1.164,3.979 0.77,3.488 0.497,2.864 0.165,2.144 0,1.188 0,0"
           style="fill:#575756;fill-opacity:1;fill-rule:nonzero;stroke:none"
           id="path81" /></g><g
         id="g83"
         transform="translate(380.9058,68.9014)"><path
           d="m 0,0 c 0.059,0.643 0.059,1.267 0,1.871 -0.117,1.11 -0.526,2.036 -1.228,2.776 -0.78,0.819 -1.744,1.229 -2.894,1.229 -1.286,0 -2.299,-0.474 -3.04,-1.418 -0.74,-0.945 -1.11,-2.119 -1.11,-3.522 0,-1.423 0.37,-2.598 1.11,-3.523 0.741,-0.926 1.754,-1.389 3.04,-1.389 1.15,0 2.114,0.41 2.894,1.228 C -0.526,-2.008 -0.117,-1.092 0,0 m -4.443,8.623 c 1.734,0 3.225,-0.701 4.472,-2.104 v 7.483 H 3.361 V -6.372 H 0.146 v 1.841 c -1.227,-1.461 -2.757,-2.193 -4.589,-2.193 -2.144,0 -3.878,0.761 -5.203,2.281 -1.326,1.52 -1.988,3.312 -1.988,5.379 0,2.065 0.662,3.863 1.988,5.392 1.325,1.53 3.059,2.295 5.203,2.295"
           style="fill:#575756;fill-opacity:1;fill-rule:nonzero;stroke:none"
           id="path85" /></g><g
         id="g87"
         transform="translate(390.2534,61.2422)"><path
           d="m 0,0 h -0.146 c -0.584,0 -1.091,0.205 -1.52,0.614 -0.429,0.409 -0.643,0.907 -0.643,1.491 0,0.604 0.214,1.111 0.643,1.52 0.429,0.409 0.936,0.614 1.52,0.614 0.604,0 1.111,-0.195 1.52,-0.585 C 1.861,3.187 2.105,2.534 2.105,1.696 2.105,0.273 1.754,-0.905 1.053,-1.841 0.37,-2.718 -0.409,-3.332 -1.286,-3.683 l -0.877,0.965 c 0.799,0.507 1.393,1.092 1.783,1.754 C -0.204,-0.672 -0.078,-0.351 0,0"
           style="fill:#575756;fill-opacity:1;fill-rule:nonzero;stroke:none"
           id="path89" /></g><path
         d="m 172.481,47.084 h 3.42 V 26.71 h -3.42 z"
         style="fill:#575756;fill-opacity:1;fill-rule:nonzero;stroke:none"
         id="path91" /><g
         id="g93"
         transform="translate(183.2915,34.0762)"><path
           d="M 0,0 V -7.366 H -3.304 V 7.278 h 3.187 V 5.32 C 0.272,6.002 0.838,6.558 1.578,6.986 2.318,7.414 3.117,7.629 3.976,7.629 5.71,7.629 7.098,7.039 8.141,5.86 9.183,4.682 9.705,3.107 9.705,1.14 V -7.366 H 6.372 v 7.658 c 0,1.559 -0.253,2.714 -0.76,3.464 C 5.105,4.506 4.326,4.882 3.273,4.882 2.728,4.882 2.196,4.701 1.681,4.341 1.164,3.979 0.77,3.488 0.497,2.864 0.165,2.144 0,1.188 0,0"
           style="fill:#575756;fill-opacity:1;fill-rule:nonzero;stroke:none"
           id="path95" /></g><g
         id="g97"
         transform="translate(197.4038,42.9033)"><path
           d="m 0,0 c 0,1.364 0.385,2.402 1.155,3.113 0.77,0.712 1.944,1.068 3.523,1.068 H 6.285 V 1.521 H 5.32 C 4.696,1.521 4.214,1.389 3.873,1.126 3.532,0.863 3.362,0.381 3.362,-0.321 V -1.549 H 6.285 V -4.238 H 3.362 V -16.193 H 0 v 11.955 h -2.514 v 2.689 H 0 Z"
           style="fill:#575756;fill-opacity:1;fill-rule:nonzero;stroke:none"
           id="path99" /></g><g
         id="g101"
         transform="translate(206.4019,26.71)"><path
           d="m 0,0 v 14.645 h 3.128 v -2.193 c 0.487,0.721 1.082,1.277 1.783,1.666 0.838,0.507 1.822,0.761 2.952,0.761 H 8.098 V 11.896 H 7.747 C 6.362,11.896 5.262,11.478 4.443,10.64 3.684,9.821 3.304,8.545 3.304,6.811 V 0 Z"
           style="fill:#575756;fill-opacity:1;fill-rule:nonzero;stroke:none"
           id="path103" /></g><g
         id="g105"
         transform="translate(222.0942,28.9893)"><path
           d="M 0,0 C 0.857,0 1.705,0.21 2.543,0.629 3.381,1.048 3.985,1.53 4.355,2.076 V 4.561 H 1.403 c -1.676,0 -2.845,-0.215 -3.507,-0.644 -0.644,-0.487 -0.965,-1.071 -0.965,-1.754 0,-0.624 0.272,-1.14 0.818,-1.549 C -1.705,0.205 -0.955,0 0,0 m 0.906,7.162 h 3.449 c 0,0.954 -0.37,1.671 -1.11,2.149 -0.741,0.477 -1.812,0.715 -3.216,0.715 h -0.088 c -1.325,0 -2.728,-0.311 -4.209,-0.934 l -0.847,2.601 c 1.539,0.662 3.234,1.003 5.086,1.023 h 0.058 c 2.455,0 4.341,-0.473 5.657,-1.418 1.315,-0.945 1.972,-2.45 1.972,-4.516 V -2.279 H 4.502 v 1.607 C 3.878,-1.296 3.113,-1.777 2.207,-2.119 1.301,-2.46 0.38,-2.631 -0.556,-2.631 c -1.754,0 -3.172,0.464 -4.253,1.389 -1.082,0.926 -1.622,2.06 -1.622,3.405 0,1.501 0.672,2.738 2.017,3.713 1.247,0.857 3.02,1.286 5.32,1.286"
           style="fill:#575756;fill-opacity:1;fill-rule:nonzero;stroke:none"
           id="path107" /></g><g
         id="g109"
         transform="translate(232.2603,29.4277)"><path
           d="M 0,0 2.076,2.134 C 2.66,1.335 3.304,0.712 4.005,0.264 c 0.682,-0.41 1.413,-0.615 2.192,-0.615 0.74,0 1.369,0.151 1.886,0.454 C 8.599,0.404 8.857,0.809 8.857,1.315 8.857,1.822 8.609,2.217 8.112,2.5 7.615,2.782 7.025,3.05 6.344,3.304 5.544,3.557 4.726,3.839 3.889,4.151 2.758,4.561 1.93,5.087 1.403,5.729 0.877,6.373 0.614,7.104 0.614,7.922 c 0,1.208 0.566,2.236 1.696,3.084 1.129,0.848 2.464,1.271 4.004,1.271 1.637,0 2.972,-0.389 4.005,-1.169 0.527,-0.409 0.945,-0.916 1.257,-1.52 L 9.53,7.601 C 9.257,8.068 8.936,8.448 8.565,8.74 7.922,9.306 7.113,9.588 6.139,9.588 5.573,9.588 5.082,9.446 4.663,9.164 4.243,8.882 4.034,8.546 4.034,8.156 4.034,7.727 4.269,7.366 4.736,7.074 5.203,6.782 5.896,6.499 6.812,6.227 7.143,6.129 7.522,6.012 7.951,5.876 9.374,5.408 10.45,4.804 11.182,4.063 c 0.73,-0.741 1.095,-1.626 1.095,-2.66 0,-1.208 -0.584,-2.255 -1.754,-3.142 -1.169,-0.887 -2.66,-1.33 -4.471,-1.33 -1.521,0 -2.865,0.351 -4.034,1.052 C 1.237,-1.549 0.565,-0.877 0,0"
           style="fill:#575756;fill-opacity:1;fill-rule:nonzero;stroke:none"
           id="path111" /></g><g
         id="g113"
         transform="translate(251.4312,46.0605)"><path
           d="m 0,0 v -4.706 h 3.186 v -2.69 H 0 v -7.454 c 0,-0.701 0.17,-1.183 0.511,-1.446 0.341,-0.264 0.823,-0.395 1.447,-0.395 h 1.228 v -2.66 H 1.169 c -1.579,0 -2.729,0.351 -3.449,1.052 -0.722,0.702 -1.082,1.744 -1.082,3.128 v 7.775 h -2.514 v 2.69 h 2.514 V 0 Z"
           style="fill:#575756;fill-opacity:1;fill-rule:nonzero;stroke:none"
           id="path115" /></g><g
         id="g117"
         transform="translate(257.3882,26.71)"><path
           d="m 0,0 v 14.645 h 3.128 v -2.193 c 0.487,0.721 1.082,1.277 1.783,1.666 0.838,0.507 1.822,0.761 2.952,0.761 H 8.098 V 11.896 H 7.747 C 6.362,11.896 5.262,11.478 4.443,10.64 3.684,9.821 3.304,8.545 3.304,6.811 V 0 Z"
           style="fill:#575756;fill-opacity:1;fill-rule:nonzero;stroke:none"
           id="path119" /></g><g
         id="g121"
         transform="translate(277.4937,33.9883)"><path
           d="M 0,0 V 7.366 H 3.333 V -7.278 H 0.146 v 1.928 c -0.409,-0.72 -0.955,-1.266 -1.636,-1.636 -0.8,-0.429 -1.628,-0.644 -2.486,-0.644 -1.714,0 -3.093,0.585 -4.135,1.754 -1.043,1.17 -1.565,2.748 -1.565,4.736 v 8.506 h 3.304 v -7.687 c 0,-1.54 0.258,-2.686 0.774,-3.436 0.516,-0.75 1.301,-1.125 2.354,-1.125 0.525,0 1.052,0.18 1.578,0.541 0.526,0.361 0.926,0.843 1.198,1.447 C -0.156,-2.173 0,-1.209 0,0"
           style="fill:#575756;fill-opacity:1;fill-rule:nonzero;stroke:none"
           id="path123" /></g><g
         id="g125"
         transform="translate(283.6567,34.0176)"><path
           d="m 0,0 c 0,2.104 0.794,3.912 2.382,5.422 1.588,1.511 3.6,2.265 6.036,2.265 1.91,0 3.703,-0.613 5.379,-1.841 L 12.716,3.244 C 11.254,4.375 9.821,4.94 8.418,4.94 6.918,4.94 5.7,4.462 4.765,3.508 3.829,2.553 3.361,1.384 3.361,0 c 0,-1.384 0.468,-2.548 1.404,-3.493 0.935,-0.945 2.153,-1.418 3.653,-1.418 1.423,0 2.875,0.556 4.355,1.666 l 1.082,-2.602 c -1.618,-1.208 -3.43,-1.812 -5.437,-1.812 -2.436,0 -4.448,0.751 -6.036,2.251 C 0.794,-3.907 0,-2.104 0,0"
           style="fill:#575756;fill-opacity:1;fill-rule:nonzero;stroke:none"
           id="path127" /></g><g
         id="g129"
         transform="translate(304.7563,46.0605)"><path
           d="m 0,0 v -4.706 h 3.186 v -2.69 H 0 v -7.454 c 0,-0.701 0.17,-1.183 0.511,-1.446 0.341,-0.264 0.823,-0.395 1.447,-0.395 h 1.228 v -2.66 H 1.169 c -1.579,0 -2.729,0.351 -3.449,1.052 -0.722,0.702 -1.082,1.744 -1.082,3.128 v 7.775 h -2.514 v 2.69 h 2.514 V 0 Z"
           style="fill:#575756;fill-opacity:1;fill-rule:nonzero;stroke:none"
           id="path131" /></g><g
         id="g133"
         transform="translate(320.3892,33.9883)"><path
           d="M 0,0 V 7.366 H 3.333 V -7.278 H 0.146 v 1.928 c -0.409,-0.72 -0.955,-1.266 -1.636,-1.636 -0.8,-0.429 -1.628,-0.644 -2.486,-0.644 -1.714,0 -3.093,0.585 -4.135,1.754 -1.043,1.17 -1.565,2.748 -1.565,4.736 v 8.506 h 3.304 v -7.687 c 0,-1.54 0.258,-2.686 0.774,-3.436 0.516,-0.75 1.301,-1.125 2.354,-1.125 0.525,0 1.052,0.18 1.578,0.541 0.526,0.361 0.926,0.843 1.198,1.447 C -0.156,-2.173 0,-1.209 0,0"
           style="fill:#575756;fill-opacity:1;fill-rule:nonzero;stroke:none"
           id="path135" /></g><g
         id="g137"
         transform="translate(327.5747,26.71)"><path
           d="m 0,0 v 14.645 h 3.128 v -2.193 c 0.487,0.721 1.082,1.277 1.783,1.666 0.838,0.507 1.822,0.761 2.952,0.761 H 8.098 V 11.896 H 7.747 C 6.362,11.896 5.262,11.478 4.443,10.64 3.684,9.821 3.304,8.545 3.304,6.811 V 0 Z"
           style="fill:#575756;fill-opacity:1;fill-rule:nonzero;stroke:none"
           id="path139" /></g><g
         id="g141"
         transform="translate(340.1099,35.1865)"><path
           d="M 0,0 H 8.126 C 8.087,0.955 7.687,1.827 6.928,2.616 6.168,3.405 5.203,3.8 4.034,3.8 2.825,3.8 1.831,3.371 1.052,2.514 0.486,1.871 0.136,1.033 0,0 m 0.059,-2.631 c 0.194,-0.896 0.613,-1.627 1.256,-2.192 0.936,-0.858 2.173,-1.286 3.712,-1.286 1.618,0 3.128,0.594 4.532,1.783 l 0.994,-2.455 C 8.974,-8.146 7.104,-8.828 4.94,-8.828 c -2.475,0 -4.487,0.702 -6.037,2.105 -1.549,1.403 -2.323,3.244 -2.323,5.525 0,2.24 0.687,4.087 2.061,5.539 1.374,1.452 3.171,2.178 5.393,2.178 2.182,0 3.97,-0.721 5.363,-2.164 1.394,-1.442 2.091,-3.225 2.091,-5.349 0,-0.584 -0.049,-1.13 -0.146,-1.637 z"
           style="fill:#575756;fill-opacity:1;fill-rule:nonzero;stroke:none"
           id="path143" /></g><g
         id="g145"
         transform="translate(367.9849,28.9893)"><path
           d="M 0,0 C 0.857,0 1.705,0.21 2.543,0.629 3.381,1.048 3.985,1.53 4.355,2.076 V 4.561 H 1.403 c -1.676,0 -2.845,-0.215 -3.507,-0.644 -0.644,-0.487 -0.965,-1.071 -0.965,-1.754 0,-0.624 0.272,-1.14 0.818,-1.549 C -1.705,0.205 -0.955,0 0,0 m 0.906,7.162 h 3.449 c 0,0.954 -0.37,1.671 -1.11,2.149 -0.741,0.477 -1.812,0.715 -3.216,0.715 h -0.088 c -1.325,0 -2.728,-0.311 -4.209,-0.934 l -0.847,2.601 c 1.539,0.662 3.234,1.003 5.086,1.023 h 0.058 c 2.455,0 4.341,-0.473 5.657,-1.418 1.315,-0.945 1.972,-2.45 1.972,-4.516 V -2.279 H 4.502 v 1.607 C 3.878,-1.296 3.113,-1.777 2.207,-2.119 1.301,-2.46 0.38,-2.631 -0.556,-2.631 c -1.754,0 -3.172,0.464 -4.253,1.389 -1.082,0.926 -1.622,2.06 -1.622,3.405 0,1.501 0.672,2.738 2.017,3.713 1.247,0.857 3.02,1.286 5.32,1.286"
           style="fill:#575756;fill-opacity:1;fill-rule:nonzero;stroke:none"
           id="path147" /></g><g
         id="g149"
         transform="translate(382.8003,34.0762)"><path
           d="M 0,0 V -7.366 H -3.304 V 7.278 h 3.187 V 5.32 C 0.272,6.002 0.838,6.558 1.578,6.986 2.318,7.414 3.117,7.629 3.976,7.629 5.71,7.629 7.098,7.039 8.141,5.86 9.183,4.682 9.705,3.107 9.705,1.14 V -7.366 H 6.372 v 7.658 c 0,1.559 -0.253,2.714 -0.76,3.464 C 5.105,4.506 4.326,4.882 3.273,4.882 2.728,4.882 2.196,4.701 1.681,4.341 1.164,3.979 0.77,3.488 0.497,2.864 0.165,2.144 0,1.188 0,0"
           style="fill:#575756;fill-opacity:1;fill-rule:nonzero;stroke:none"
           id="path151" /></g><g
         id="g153"
         transform="translate(406.9692,33.082)"><path
           d="m 0,0 c 0.059,0.643 0.059,1.267 0,1.871 -0.117,1.11 -0.526,2.036 -1.228,2.776 -0.78,0.819 -1.744,1.229 -2.894,1.229 -1.286,0 -2.299,-0.474 -3.04,-1.418 -0.74,-0.945 -1.11,-2.119 -1.11,-3.522 0,-1.423 0.37,-2.598 1.11,-3.523 0.741,-0.926 1.754,-1.389 3.04,-1.389 1.15,0 2.114,0.41 2.894,1.228 C -0.526,-2.008 -0.117,-1.092 0,0 m -4.443,8.623 c 1.734,0 3.225,-0.701 4.472,-2.104 v 7.483 H 3.361 V -6.372 H 0.146 v 1.841 c -1.227,-1.461 -2.757,-2.193 -4.589,-2.193 -2.144,0 -3.878,0.761 -5.203,2.281 -1.326,1.52 -1.988,3.312 -1.988,5.379 0,2.065 0.662,3.863 1.988,5.392 1.325,1.53 3.059,2.295 5.203,2.295"
           style="fill:#575756;fill-opacity:1;fill-rule:nonzero;stroke:none"
           id="path155" /></g><g
         id="g157"
         transform="translate(430.4893,44.2188)"><path
           d="M 0,0 V -17.509 H -3.42 V 0 H -9.646 V 2.865 H 6.227 V 0 Z"
           style="fill:#575756;fill-opacity:1;fill-rule:nonzero;stroke:none"
           id="path159" /></g><g
         id="g161"
         transform="translate(437.3818,26.71)"><path
           d="m 0,0 v 14.645 h 3.127 v -2.193 c 0.488,0.721 1.082,1.277 1.783,1.666 0.838,0.507 1.822,0.761 2.953,0.761 H 8.098 V 11.896 H 7.746 C 6.361,11.896 5.262,11.478 4.443,10.64 3.684,9.821 3.303,8.545 3.303,6.811 V 0 Z"
           style="fill:#575756;fill-opacity:1;fill-rule:nonzero;stroke:none"
           id="path163" /></g><g
         id="g165"
         transform="translate(453.0732,28.9893)"><path
           d="M 0,0 C 0.857,0 1.705,0.21 2.543,0.629 3.381,1.048 3.986,1.53 4.355,2.076 V 4.561 H 1.404 C -0.273,4.561 -1.441,4.346 -2.104,3.917 -2.748,3.43 -3.068,2.846 -3.068,2.163 -3.068,1.539 -2.797,1.023 -2.25,0.614 -1.705,0.205 -0.955,0 0,0 m 0.906,7.162 h 3.449 c 0,0.954 -0.369,1.671 -1.109,2.149 -0.742,0.477 -1.812,0.715 -3.217,0.715 h -0.088 c -1.324,0 -2.728,-0.311 -4.209,-0.934 l -0.847,2.601 c 1.539,0.662 3.234,1.003 5.086,1.023 h 0.058 c 2.455,0 4.342,-0.473 5.657,-1.418 1.316,-0.945 1.972,-2.45 1.972,-4.516 V -2.279 H 4.502 v 1.607 C 3.879,-1.296 3.113,-1.777 2.207,-2.119 1.301,-2.46 0.381,-2.631 -0.555,-2.631 c -1.754,0 -3.172,0.464 -4.254,1.389 -1.082,0.926 -1.621,2.06 -1.621,3.405 0,1.501 0.672,2.738 2.016,3.713 1.248,0.857 3.021,1.286 5.32,1.286"
           style="fill:#575756;fill-opacity:1;fill-rule:nonzero;stroke:none"
           id="path167" /></g><g
         id="g169"
         transform="translate(467.8901,34.0762)"><path
           d="M 0,0 V -7.366 H -3.305 V 7.278 h 3.188 V 5.32 c 0.388,0.682 0.955,1.238 1.695,1.666 0.74,0.428 1.539,0.643 2.397,0.643 1.734,0 3.123,-0.59 4.166,-1.769 C 9.182,4.682 9.705,3.107 9.705,1.14 V -7.366 H 6.371 v 7.658 c 0,1.559 -0.252,2.714 -0.76,3.464 C 5.105,4.506 4.326,4.882 3.273,4.882 2.727,4.882 2.195,4.701 1.68,4.341 1.164,3.979 0.77,3.488 0.496,2.864 0.164,2.144 0,1.188 0,0"
           style="fill:#575756;fill-opacity:1;fill-rule:nonzero;stroke:none"
           id="path171" /></g><g
         id="g173"
         transform="translate(480.1011,29.4277)"><path
           d="m 0,0 2.076,2.134 c 0.584,-0.799 1.229,-1.422 1.93,-1.87 0.681,-0.41 1.412,-0.615 2.191,-0.615 0.74,0 1.369,0.151 1.887,0.454 C 8.6,0.404 8.857,0.809 8.857,1.315 8.857,1.822 8.609,2.217 8.113,2.5 7.615,2.782 7.025,3.05 6.344,3.304 5.545,3.557 4.727,3.839 3.889,4.151 2.758,4.561 1.93,5.087 1.404,5.729 0.877,6.373 0.615,7.104 0.615,7.922 c 0,1.208 0.565,2.236 1.696,3.084 1.128,0.848 2.464,1.271 4.003,1.271 1.637,0 2.973,-0.389 4.006,-1.169 0.526,-0.409 0.944,-0.916 1.256,-1.52 L 9.531,7.601 C 9.258,8.068 8.936,8.448 8.566,8.74 7.922,9.306 7.113,9.588 6.139,9.588 5.574,9.588 5.082,9.446 4.664,9.164 4.244,8.882 4.035,8.546 4.035,8.156 4.035,7.727 4.27,7.366 4.736,7.074 5.203,6.782 5.896,6.499 6.812,6.227 7.143,6.129 7.523,6.012 7.951,5.876 c 1.424,-0.468 2.5,-1.072 3.231,-1.813 0.73,-0.741 1.095,-1.626 1.095,-2.66 0,-1.208 -0.584,-2.255 -1.754,-3.142 -1.168,-0.887 -2.66,-1.33 -4.47,-1.33 -1.522,0 -2.865,0.351 -4.035,1.052 C 1.238,-1.549 0.566,-0.877 0,0"
           style="fill:#575756;fill-opacity:1;fill-rule:nonzero;stroke:none"
           id="path175" /></g><g
         id="g177"
         transform="translate(498.3374,33.082)"><path
           d="m 0,0 c 0.115,-1.092 0.525,-2.008 1.227,-2.748 0.779,-0.818 1.753,-1.228 2.923,-1.228 1.266,0 2.276,0.463 3.026,1.389 0.75,0.925 1.125,2.1 1.125,3.523 0,1.403 -0.375,2.577 -1.125,3.522 C 6.426,5.402 5.416,5.876 4.15,5.876 2.98,5.876 2.006,5.466 1.227,4.647 0.525,3.907 0.115,2.981 0,1.871 -0.059,1.267 -0.059,0.643 0,0 m 4.471,-6.724 c -1.793,0 -3.293,0.693 -4.5,2.077 v -7.396 H -3.334 V 8.272 h 3.188 V 6.401 c 1.265,1.482 2.806,2.222 4.617,2.222 2.125,0 3.853,-0.765 5.189,-2.295 1.334,-1.529 2.002,-3.327 2.002,-5.392 0,-2.067 -0.668,-3.859 -2.002,-5.379 -1.336,-1.52 -3.064,-2.281 -5.189,-2.281"
           style="fill:#575756;fill-opacity:1;fill-rule:nonzero;stroke:none"
           id="path179" /></g><g
         id="g181"
         transform="translate(519.5249,29.1064)"><path
           d="M 0,0 C 1.207,0 2.246,0.463 3.113,1.389 3.98,2.313 4.414,3.488 4.414,4.911 4.414,6.314 3.98,7.488 3.113,8.434 2.246,9.378 1.207,9.852 0,9.852 -1.189,9.852 -2.217,9.378 -3.084,8.434 -3.951,7.488 -4.385,6.314 -4.385,4.911 -4.385,3.488 -3.951,2.313 -3.084,1.389 -2.217,0.463 -1.189,0 0,0 m 0,-2.748 c -2.145,0 -3.971,0.736 -5.482,2.207 -1.51,1.472 -2.264,3.289 -2.264,5.452 0,2.163 0.754,3.985 2.264,5.466 1.511,1.481 3.337,2.222 5.482,2.222 2.162,0 3.994,-0.741 5.494,-2.222 C 6.996,8.896 7.746,7.074 7.746,4.911 7.746,2.748 6.996,0.931 5.494,-0.541 3.994,-2.012 2.162,-2.748 0,-2.748"
           style="fill:#575756;fill-opacity:1;fill-rule:nonzero;stroke:none"
           id="path183" /></g><g
         id="g185"
         transform="translate(530.1304,26.71)"><path
           d="m 0,0 v 14.645 h 3.127 v -2.193 c 0.488,0.721 1.082,1.277 1.783,1.666 0.838,0.507 1.822,0.761 2.953,0.761 H 8.098 V 11.896 H 7.746 C 6.361,11.896 5.262,11.478 4.443,10.64 3.684,9.821 3.303,8.545 3.303,6.811 V 0 Z"
           style="fill:#575756;fill-opacity:1;fill-rule:nonzero;stroke:none"
           id="path187" /></g><g
         id="g189"
         transform="translate(545.8511,46.0605)"><path
           d="m 0,0 v -4.706 h 3.186 v -2.69 H 0 v -7.454 c 0,-0.701 0.17,-1.183 0.512,-1.446 0.34,-0.264 0.822,-0.395 1.447,-0.395 h 1.227 v -2.66 H 1.17 c -1.58,0 -2.729,0.351 -3.449,1.052 -0.723,0.702 -1.082,1.744 -1.082,3.128 v 7.775 h -2.514 v 2.69 h 2.514 V 0 Z"
           style="fill:#575756;fill-opacity:1;fill-rule:nonzero;stroke:none"
           id="path191" /></g></g></g></svg>
